<?xml version="1.0" encoding="UTF-8" standalone="no"?>
<!DOCTYPE svg PUBLIC "-//W3C//DTD SVG 1.1//EN" "http://www.w3.org/Graphics/SVG/1.1/DTD/svg11.dtd">
<svg xmlns="http://www.w3.org/2000/svg" version="1.1" viewBox="0.00 0.00 328.00 285.00">
<path fill="#b08552" d="
  M 94.19 152.02
  C 95.08 150.31 94.21 148.13 93.10 146.39
  C 81.15 127.61 73.11 104.68 74.13 81.74
  Q 74.29 78.17 75.14 75.37
  Q 75.47 74.31 76.57 74.43
  Q 87.98 75.65 99.00 78.81
  A 1.62 1.61 -72.8 0 0 100.98 77.76
  Q 106.14 62.08 116.29 49.04
  Q 117.06 48.05 118.25 48.42
  C 133.54 53.23 145.49 61.06 157.59 71.22
  A 1.94 1.94 0.0 0 0 160.18 71.14
  Q 171.24 60.73 184.53 54.06
  Q 187.24 52.70 198.18 48.13
  C 199.77 47.46 200.49 47.64 201.57 49.02
  Q 211.57 61.74 216.63 77.10
  Q 217.22 78.88 219.02 78.38
  Q 228.73 75.68 239.00 74.47
  Q 240.65 74.28 242.09 74.55
  Q 242.94 74.70 242.98 75.57
  C 244.06 95.30 241.88 113.50 233.20 131.38
  C 230.53 136.88 224.74 144.61 224.73 150.71
  A 1.80 1.79 81.8 0 0 227.03 152.44
  C 247.91 146.21 271.75 144.52 292.27 153.17
  A 1.23 1.22 -69.9 0 1 292.96 154.67
  Q 279.20 197.28 244.62 224.40
  C 225.06 239.74 199.76 250.31 175.00 252.65
  C 139.47 256.02 105.11 247.92 76.95 226.85
  C 53.80 209.53 33.05 183.31 25.80 154.81
  A 1.83 1.82 -17.5 0 1 26.92 152.67
  C 47.31 144.86 71.64 145.94 92.18 152.83
  A 1.67 1.67 0.0 0 0 94.19 152.02
  Z
  M 122.44 64.46
  C 118.97 66.87 115.05 76.40 113.30 80.39
  Q 112.14 83.04 114.89 84.11
  Q 127.31 88.96 137.86 97.28
  A 1.74 1.74 0.0 0 0 140.48 96.72
  Q 143.93 90.07 148.34 83.83
  C 149.30 82.47 149.77 80.96 148.46 79.77
  Q 138.09 70.30 124.41 64.27
  A 2.02 2.01 39.4 0 0 122.44 64.46
  Z
  M 180.40 96.78
  C 187.92 91.33 195.58 87.55 203.94 83.67
  A 1.53 1.53 0.0 0 0 204.73 81.77
  Q 202.23 74.79 198.80 68.20
  Q 195.89 62.61 189.98 65.69
  Q 178.21 71.82 169.75 79.50
  Q 167.78 81.28 169.48 83.75
  Q 173.72 89.92 177.56 96.22
  A 1.97 1.96 -33.7 0 0 180.40 96.78
  Z
  M 226.72 113.44
  C 228.68 106.20 229.81 98.28 229.91 90.80
  Q 229.94 88.75 227.93 89.13
  L 222.66 90.10
  Q 220.64 90.48 221.00 92.50
  L 224.80 113.98
  A 0.74 0.74 0.0 0 0 225.61 114.59
  Q 226.44 114.49 226.72 113.44
  Z
  M 87.52 90.86
  C 87.08 98.18 88.58 106.38 90.91 113.36
  Q 91.13 114.02 91.63 114.23
  A 0.69 0.68 16.4 0 0 92.57 113.72
  L 96.31 92.37
  Q 96.62 90.63 94.88 90.35
  L 89.27 89.46
  Q 87.63 89.20 87.52 90.86
  Z
  M 161.60 94.19
  A 3.22 3.22 0.0 0 0 156.07 94.17
  L 149.69 104.82
  A 3.22 3.22 0.0 0 0 150.09 108.66
  L 156.14 115.18
  A 3.22 3.22 0.0 0 0 160.72 115.32
  L 167.41 108.93
  A 3.22 3.22 0.0 0 0 167.96 104.97
  L 161.60 94.19
  Z
  M 183.76 111.15
  C 190.71 129.04 193.92 148.60 191.49 167.77
  A 0.86 0.85 -1.0 0 0 192.48 168.72
  Q 192.94 168.64 193.56 168.28
  Q 200.02 164.51 206.50 160.77
  Q 209.81 158.86 210.60 154.84
  Q 216.39 125.36 208.98 96.30
  A 1.40 1.40 0.0 0 0 207.00 95.39
  Q 195.46 101.11 184.69 108.23
  A 2.45 2.44 62.8 0 0 183.76 111.15
  Z
  M 127.33 167.86
  C 124.95 148.86 127.41 129.35 133.55 111.19
  Q 134.18 109.32 132.87 108.38
  Q 122.81 101.17 110.80 95.66
  A 1.83 1.83 0.0 0 0 108.34 96.63
  Q 107.95 97.59 107.56 99.51
  C 104.08 116.45 103.10 135.83 107.17 152.75
  C 107.92 155.83 108.44 157.76 111.25 159.62
  Q 118.40 164.35 125.85 168.82
  A 0.98 0.98 0.0 0 0 127.33 167.86
  Z
  M 140.19 149.97
  C 142.90 142.23 146.30 135.08 149.67 127.64
  Q 150.66 125.46 148.82 123.94
  L 145.78 121.44
  Q 143.88 119.88 143.18 122.24
  Q 139.06 136.13 137.99 150.55
  Q 137.90 151.68 139.03 151.59
  Q 139.64 151.54 140.19 149.97
  Z
  M 168.73 129.57
  C 172.78 136.64 175.90 144.00 179.40 151.88
  Q 179.95 153.10 180.66 151.97
  Q 181.33 150.91 180.94 148.12
  Q 179.15 135.43 175.22 122.91
  Q 174.26 119.85 172.01 122.13
  L 169.35 124.81
  Q 167.23 126.95 168.73 129.57
  Z
  M 144.03 183.15
  C 142.60 193.62 150.52 210.90 155.75 219.92
  Q 157.12 222.26 158.75 223.87
  Q 159.31 224.42 159.71 223.74
  Q 168.49 208.68 172.99 192.26
  Q 174.32 187.42 173.96 184.00
  C 172.43 169.55 167.69 151.76 159.60 138.78
  A 0.98 0.97 52.1 0 0 158.09 138.59
  Q 157.74 138.93 157.40 139.62
  Q 147.13 160.26 144.03 183.15
  Z
  M 57.33 159.30
  C 52.37 159.87 47.48 160.54 42.37 161.92
  A 1.56 1.56 0.0 0 0 41.22 163.33
  Q 41.15 164.72 42.04 166.46
  C 57.74 197.01 84.20 222.51 116.85 234.33
  Q 119.00 235.11 121.25 235.50
  Q 122.37 235.69 122.33 234.72
  A 1.10 1.09 -75.7 0 0 121.82 233.85
  Q 79.46 206.96 59.76 160.71
  A 2.34 2.33 75.0 0 0 57.33 159.30
  Z
  M 275.54 161.80
  C 271.03 160.87 263.35 159.04 259.03 159.96
  Q 258.47 160.08 258.24 160.61
  Q 242.60 196.35 212.97 221.71
  Q 205.63 228.00 197.62 233.87
  A 1.38 1.36 -16.7 0 0 197.07 234.88
  Q 196.97 236.27 198.52 235.76
  C 205.26 233.56 211.63 230.19 217.85 226.86
  C 241.84 214.04 266.77 189.50 276.61 163.74
  A 1.45 1.45 0.0 0 0 275.54 161.80
  Z
  M 187.02 188.26
  C 184.85 203.70 179.13 219.03 170.03 231.86
  A 1.19 1.18 -57.1 0 0 170.39 233.56
  Q 170.74 233.77 171.68 233.34
  Q 205.29 217.76 226.99 187.75
  C 232.61 179.98 238.41 172.03 242.14 163.19
  A 0.82 0.82 0.0 0 0 241.45 162.05
  Q 239.40 161.89 237.26 162.55
  C 220.34 167.78 206.52 174.70 189.37 184.95
  C 187.84 185.86 187.27 186.52 187.02 188.26
  Z
  M 77.40 162.25
  Q 75.80 161.88 74.94 162.48
  A 1.38 1.37 57.6 0 0 74.54 164.30
  C 92.08 194.41 114.68 218.74 146.85 233.39
  A 0.97 0.96 10.0 0 0 148.22 232.44
  Q 148.15 231.52 147.43 230.54
  C 138.47 218.25 133.01 202.10 130.49 187.09
  Q 130.20 185.38 129.20 184.81
  C 112.53 175.51 96.55 166.62 77.40 162.25
  Z"
/>
</svg>
